<?xml version="1.0" encoding="UTF-8" standalone="no"?><svg xmlns="http://www.w3.org/2000/svg" xmlns:xlink="http://www.w3.org/1999/xlink" contentStyleType="text/css" height="852px" preserveAspectRatio="none" style="width:2271px;height:852px;background:#FFFFFF;" version="1.1" viewBox="0 0 2271 852" width="2271px" zoomAndPan="magnify"><defs/><g><rect fill="none" height="27.6094" id="_title" style="stroke:none;stroke-width:1.0;" width="49" x="1104.1289" y="5"/><text fill="#000000" font-family="sans-serif" font-size="14" font-weight="bold" lengthAdjust="spacing" textLength="39" x="1109.1289" y="24.5332">SMET</text><!--MD5=[854437c9625fb3133d762d8df613f533]
entity Usuario_no_logueado--><g id="elem_Usuario_no_logueado"><ellipse cx="704.5" cy="310.6094" fill="#ADD8E6" rx="8" ry="8" style="stroke:#181818;stroke-width:0.5;"/><path d="M704.5,318.6094 L704.5,345.6094 M691.5,326.6094 L717.5,326.6094 M704.5,345.6094 L691.5,360.6094 M704.5,345.6094 L717.5,360.6094 " fill="none" style="stroke:#181818;stroke-width:0.5;"/><text fill="#000000" font-family="sans-serif" font-size="14" lengthAdjust="spacing" textLength="139" x="635" y="376.6426">Usuario_no_logueado</text></g><!--MD5=[8fe90401ea1b44801285df08fa817c52]
entity Usuario_logueado--><g id="elem_Usuario_logueado"><ellipse cx="303.5" cy="310.6094" fill="#ADD8E6" rx="8" ry="8" style="stroke:#181818;stroke-width:0.5;"/><path d="M303.5,318.6094 L303.5,345.6094 M290.5,326.6094 L316.5,326.6094 M303.5,345.6094 L290.5,360.6094 M303.5,345.6094 L316.5,360.6094 " fill="none" style="stroke:#181818;stroke-width:0.5;"/><text fill="#000000" font-family="sans-serif" font-size="14" lengthAdjust="spacing" textLength="115" x="246" y="376.6426">Usuario_logueado</text></g><!--MD5=[52ec6a8b74b13041fc2aa09119826c6e]
entity Sistema--><g id="elem_Sistema"><ellipse cx="898.5" cy="52.6094" fill="#ADD8E6" rx="8" ry="8" style="stroke:#181818;stroke-width:0.5;"/><path d="M898.5,60.6094 L898.5,87.6094 M885.5,68.6094 L911.5,68.6094 M898.5,87.6094 L885.5,102.6094 M898.5,87.6094 L911.5,102.6094 " fill="none" style="stroke:#181818;stroke-width:0.5;"/><text fill="#000000" font-family="sans-serif" font-size="14" lengthAdjust="spacing" textLength="50" x="873.5" y="118.6426">Sistema</text></g><!--MD5=[f78b2a09930539d4a7ba51d2d2c9bd47]
entity Opeador_de_transporte--><g id="elem_Opeador_de_transporte"><ellipse cx="414.5" cy="52.6094" fill="#ADD8E6" rx="8" ry="8" style="stroke:#181818;stroke-width:0.5;"/><path d="M414.5,60.6094 L414.5,87.6094 M401.5,68.6094 L427.5,68.6094 M414.5,87.6094 L401.5,102.6094 M414.5,87.6094 L427.5,102.6094 " fill="none" style="stroke:#181818;stroke-width:0.5;"/><text fill="#000000" font-family="sans-serif" font-size="14" lengthAdjust="spacing" textLength="153" x="338" y="118.6426">Opeador_de_transporte</text></g><!--MD5=[20fc03f5e77fa9f6e78801c55676b161]
entity Opeador_adjudicatario--><g id="elem_Opeador_adjudicatario"><ellipse cx="1753.5" cy="449.6094" fill="#ADD8E6" rx="8" ry="8" style="stroke:#181818;stroke-width:0.5;"/><path d="M1753.5,457.6094 L1753.5,484.6094 M1740.5,465.6094 L1766.5,465.6094 M1753.5,484.6094 L1740.5,499.6094 M1753.5,484.6094 L1766.5,499.6094 " fill="none" style="stroke:#181818;stroke-width:0.5;"/><text fill="#000000" font-family="sans-serif" font-size="14" lengthAdjust="spacing" textLength="145" x="1681" y="515.6426">Opeador_adjudicatario</text></g><g id="elem_DA"><ellipse cx="898.6203" cy="211.9334" fill="#F1F1F1" rx="77.1203" ry="17.8241" style="stroke:#181818;stroke-width:0.5;"/><text fill="#000000" font-family="sans-serif" font-size="14" lengthAdjust="spacing" textLength="107" x="842.7783" y="216.295">Generar alarmas</text></g><g id="elem_VE"><ellipse cx="533.58" cy="341.2321" fill="#F1F1F1" rx="66.08" ry="15.6227" style="stroke:#181818;stroke-width:0.5;"/><text fill="#000000" font-family="sans-serif" font-size="14" lengthAdjust="spacing" textLength="76" x="492.58" y="345.7487">Ver eventos</text></g><g id="elem_VEVUL"><ellipse cx="652.641" cy="212.2376" fill="#F1F1F1" rx="133.641" ry="29.1282" style="stroke:#181818;stroke-width:0.5;"/><text fill="#000000" font-family="sans-serif" font-size="14" lengthAdjust="spacing" textLength="234" x="535.641" y="215.9661">Ver eventos (vista Usuario logueado)</text></g><g id="elem_VAUL"><ellipse cx="139.641" cy="480.2376" fill="#F1F1F1" rx="133.641" ry="29.1282" style="stroke:#181818;stroke-width:0.5;"/><text fill="#000000" font-family="sans-serif" font-size="14" lengthAdjust="spacing" textLength="234" x="22.641" y="483.9661">Ver alarmas (vista Usuario logueado)</text></g><g id="elem_VAOP"><ellipse cx="460.6453" cy="479.9384" fill="#F1F1F1" rx="152.1453" ry="32.8291" style="stroke:#181818;stroke-width:0.5;"/><text fill="#000000" font-family="sans-serif" font-size="14" lengthAdjust="spacing" textLength="273" x="324.1453" y="483.6669">Ver alarmas (vista Operador de transporte)</text></g><g id="elem_VAOA"><ellipse cx="1263.7356" cy="480.0565" fill="#F1F1F1" rx="150.2356" ry="32.4471" style="stroke:#181818;stroke-width:0.5;"/><text fill="#000000" font-family="sans-serif" font-size="14" lengthAdjust="spacing" textLength="269" x="1129.2356" y="483.785">Ver alarmas (vista Operador adjudicatario)</text></g><g id="elem_VA"><ellipse cx="782.3631" cy="480.2183" fill="#F1F1F1" rx="63.8631" ry="15.609" style="stroke:#181818;stroke-width:0.5;"/><text fill="#000000" font-family="sans-serif" font-size="14" lengthAdjust="spacing" textLength="69" x="742.8631" y="484.7349">Ver alarma</text></g><g id="elem_VADV"><ellipse cx="226.355" cy="83.2804" fill="#F1F1F1" rx="76.355" ry="17.671" style="stroke:#181818;stroke-width:0.5;"/><text fill="#000000" font-family="sans-serif" font-size="14" lengthAdjust="spacing" textLength="105" x="171.1233" y="87.7349">ver advertencias</text></g><g id="elem_CCO"><ellipse cx="832.6359" cy="653.7366" fill="#F1F1F1" rx="113.6359" ry="25.1272" style="stroke:#181818;stroke-width:0.5;"/><text fill="#000000" font-family="sans-serif" font-size="14" lengthAdjust="spacing" textLength="191" x="737.1359" y="657.4651">Crear conjunto de operadores</text></g><g id="elem_RSP"><ellipse cx="1753.3167" cy="340.9727" fill="#F1F1F1" rx="117.3167" ry="25.8633" style="stroke:#181818;stroke-width:0.5;"/><text fill="#000000" font-family="sans-serif" font-size="14" lengthAdjust="spacing" textLength="199" x="1653.8167" y="344.7012">Registrar situaciones puntuales</text></g><g id="elem_RPCT"><ellipse cx="1753.2518" cy="653.5597" fill="#F1F1F1" rx="140.2518" ry="30.4504" style="stroke:#181818;stroke-width:0.5;"/><text fill="#000000" font-family="sans-serif" font-size="14" lengthAdjust="spacing" textLength="248" x="1629.2518" y="657.2883">Registrar periodos continuos de tiempo</text></g><g id="elem_PD"><ellipse cx="1999.5039" cy="653.6102" fill="#F1F1F1" rx="70.5039" ry="16.5008" style="stroke:#181818;stroke-width:0.5;"/><text fill="#000000" font-family="sans-serif" font-size="14" lengthAdjust="spacing" textLength="89" x="1952.0039" y="658.1268">Proveer datos</text></g><g id="elem_DE"><ellipse cx="2058.6531" cy="480.04" fill="#F1F1F1" rx="70.1531" ry="16.4306" style="stroke:#181818;stroke-width:0.5;"/><text fill="#000000" font-family="sans-serif" font-size="14" lengthAdjust="spacing" textLength="88" x="2011.6531" y="484.5566">Definir evento</text></g><g id="elem_CA"><ellipse cx="2185.3789" cy="653.4852" fill="#F1F1F1" rx="79.8789" ry="18.3758" style="stroke:#181818;stroke-width:0.5;"/><text fill="#000000" font-family="sans-serif" font-size="14" lengthAdjust="spacing" textLength="114" x="2127.3373" y="657.5118">Crear advertencia</text></g><g id="elem_EEE"><ellipse cx="685.6723" cy="808.8438" fill="#F1F1F1" rx="176.6723" ry="37.7345" style="stroke:#181818;stroke-width:0.5;"/><text fill="#000000" font-family="sans-serif" font-size="14" lengthAdjust="spacing" textLength="324" x="523.6723" y="812.5723">Examinar el estado de la explotación en tiempo real</text></g><g id="elem_AEETR"><ellipse cx="1306.5345" cy="653.7163" fill="#F1F1F1" rx="271.0345" ry="56.6069" style="stroke:#181818;stroke-width:0.5;"/><text fill="#000000" font-family="sans-serif" font-size="14" lengthAdjust="spacing" textLength="516" x="1050.6155" y="654.8636">Examinar el estado de la explotación en tiempo real (Vista Operador adjudicataro)</text><line style="stroke:#181818;stroke-width:1.0;" x1="1037.2555" x2="1575.8135" y1="657.9398" y2="657.9398"/><text fill="#000000" font-family="sans-serif" font-size="14" lengthAdjust="spacing" textLength="102" x="1257.6155" y="676.473">extension points</text><text fill="#000000" font-family="sans-serif" font-size="14" lengthAdjust="spacing" textLength="191" x="1213.1155" y="694.0824">Crear conjunto de operadores</text></g><!--MD5=[213fdcda8a49667d9a57561662627904]
link Usuario_logueado to Usuario_no_logueado--><g id="link_Usuario_logueado_Usuario_no_logueado"><path d="M361.06,309.9094 C391.59,295.1294 430.28,279.0894 467,271.6094 C524.49,259.8994 542.8,254.7594 599,271.6094 C613.37,275.9194 627.6,282.8894 640.72,290.7894 " fill="none" id="Usuario_logueado-to-Usuario_no_logueado" style="stroke:#181818;stroke-width:1.0;"/><polygon fill="none" points="644.94,285.1794,657.86,301.9694,637.29,296.8994,644.94,285.1794" style="stroke:#181818;stroke-width:1.0;"/></g><!--MD5=[f47920a7585b04dc46fb31d58e534756]
link Sistema to DA--><g id="link_Sistema_DA"><path d="M898.5,122.2094 C898.5,146.0294 898.5,175.5594 898.5,193.8694 " fill="none" id="Sistema-DA" style="stroke:#181818;stroke-width:1.0;"/></g><!--MD5=[e08be41231cb8d12ad88bb21f27e3199]
link Usuario_logueado to VE--><g id="link_Usuario_logueado_VE"><path d="M361.45,341.1094 C396.73,341.1094 432.02,341.1094 467.3,341.1094 " fill="none" id="Usuario_logueado-VE" style="stroke:#181818;stroke-width:1.0;"/></g><!--MD5=[46ccfcafbbf254061a92dcb958e58871]
link Usuario_logueado to VAUL--><g id="link_Usuario_logueado_VAUL"><path d="M257.82,380.2694 C230.62,402.9994 196.73,431.2994 172.21,451.7894 " fill="none" id="Usuario_logueado-VAUL" style="stroke:#181818;stroke-width:1.0;"/></g><!--MD5=[28ec9476cf1468b4c06cb77313421044]
link Opeador_de_transporte to VAOP--><g id="link_Opeador_de_transporte_VAOP"><path d="M418.95,122.3394 C427.99,199.9794 448.36,374.8494 456.76,447.0194 " fill="none" id="Opeador_de_transporte-VAOP" style="stroke:#181818;stroke-width:1.0;"/></g><!--MD5=[201db4ec4f130b8b0f6aab38694a5c58]
link VADV to Opeador_de_transporte--><g id="link_VADV_Opeador_de_transporte"><path d="M303.24,83.1094 C314.69,83.1094 326.13,83.1094 337.58,83.1094 " fill="none" id="VADV-Opeador_de_transporte" style="stroke:#181818;stroke-width:1.0;"/></g><!--MD5=[ce85206208a4b7b9b86236e2c87dce32]
link Usuario_no_logueado to VA--><g id="link_Usuario_no_logueado_VA"><path d="M726.23,380.2694 C742.18,408.2994 762.98,444.8194 774.29,464.6894 " fill="none" id="Usuario_no_logueado-VA" style="stroke:#181818;stroke-width:1.0;"/></g><!--MD5=[505b423e660a8f16bd4d06a601e7cf92]
reverse link VA to VAOA--><g id="link_VA_VAOA"><path d="M866.89,480.1094 C949.05,480.1094 1031.2,480.1094 1113.36,480.1094 " fill="none" id="VA-backto-VAOA" style="stroke:#181818;stroke-width:1.0;"/><polygon fill="none" points="866.85,487.1094,846.85,480.1094,866.85,473.1094,866.85,487.1094" style="stroke:#181818;stroke-width:1.0;"/></g><!--MD5=[3fb8542617189f48329f4bf0681f8bc9]
link VAOP to VA--><g id="link_VAOP_VA"><path d="M612.7,480.1094 C641.21,480.1094 669.73,480.1094 698.24,480.1094 " fill="none" id="VAOP-to-VA" style="stroke:#181818;stroke-width:1.0;"/><polygon fill="none" points="698.49,473.1094,718.49,480.1094,698.49,487.1094,698.49,473.1094" style="stroke:#181818;stroke-width:1.0;"/></g><!--MD5=[99c80e0c25a18833a23f9e3afe0cacd8]
link VAUL to VA--><g id="link_VAUL_VA"><path d="M189.86,453.2394 C222.52,437.3694 266.56,418.8194 308,410.6094 C467.56,378.9894 517.89,364.8994 674,410.6094 C701.9,418.7794 729.43,436.5594 749.77,452.0894 " fill="none" id="VAUL-to-VA" style="stroke:#181818;stroke-width:1.0;"/><polygon fill="none" points="754.45,446.8694,765.64,464.8594,745.67,457.7694,754.45,446.8694" style="stroke:#181818;stroke-width:1.0;"/></g><!--MD5=[0e8bbb268a531f3c909cb6d3b396f1fe]
link Usuario_no_logueado to EEE--><g id="link_Usuario_no_logueado_EEE"><path d="M702.95,380.1994 C699.36,468.1394 690.53,684.3894 687,770.9294 " fill="none" id="Usuario_no_logueado-EEE" style="stroke:#181818;stroke-width:1.0;"/></g><!--MD5=[76334b1b2d4fff7f23f766834b71087f]
link VEVUL to Usuario_no_logueado--><g id="link_VEVUL_Usuario_no_logueado"><path d="M664.04,241.2994 C671.34,259.1294 680.87,282.3994 688.85,301.8894 " fill="none" id="VEVUL-Usuario_no_logueado" style="stroke:#181818;stroke-width:1.0;"/></g><!--MD5=[d34115bf4212be9ae2baf494e2f43acb]
link VEVUL to VE--><g id="link_VEVUL_VE"><path d="M626.68,240.6694 C607.27,261.3794 580.74,289.6894 560.95,310.8094 " fill="none" id="VEVUL-to-VE" style="stroke:#181818;stroke-width:1.0;"/><polygon fill="none" points="565.86,315.8094,547.08,325.6194,555.64,306.2394,565.86,315.8094" style="stroke:#181818;stroke-width:1.0;"/></g><!--MD5=[09114c6f8a85ce8c1bc6971c283725ac]
link Opeador_adjudicatario to AEETR--><g id="link_Opeador_adjudicatario_AEETR"><path d="M1680.69,509.0494 C1614.02,534.6294 1513.86,573.0494 1433.94,603.7194 " fill="none" id="Opeador_adjudicatario-AEETR" style="stroke:#181818;stroke-width:1.0;"/></g><!--MD5=[7423537821898d7f82b433f15b33e760]
link CCO to AEETR--><g id="link_CCO_AEETR"><path d="M946.03,653.6094 C971.93,653.6094 1000.54,653.6094 1030,653.6094 " fill="none" id="CCO-to-AEETR" style="stroke:#181818;stroke-width:1.0;stroke-dasharray:7.0,7.0;"/><polygon fill="#181818" points="1035.12,653.6094,1026.12,649.6094,1030.12,653.6094,1026.12,657.6094,1035.12,653.6094" style="stroke:#181818;stroke-width:1.0;"/><text fill="#000000" font-family="sans-serif" font-size="13" lengthAdjust="spacing" textLength="53" x="964.25" y="647.1045">«extend»</text></g><!--MD5=[b4c03454b5470dcf34a0bc9d3b7d80cc]
link AEETR to EEE--><g id="link_AEETR_EEE"><path d="M1133.52,697.2294 C1033.78,721.7994 910.31,752.2194 818.26,774.8994 " fill="none" id="AEETR-to-EEE" style="stroke:#181818;stroke-width:1.0;"/><polygon fill="none" points="819.92,781.6994,798.83,779.6894,816.57,768.1094,819.92,781.6994" style="stroke:#181818;stroke-width:1.0;"/></g><!--MD5=[b2c2d09ad4b0e58a10a0af7e2809a93e]
link RSP to Opeador_adjudicatario--><g id="link_RSP_Opeador_adjudicatario"><path d="M1753.5,367.2394 C1753.5,387.8594 1753.5,417.3994 1753.5,440.9494 " fill="none" id="RSP-Opeador_adjudicatario" style="stroke:#181818;stroke-width:1.0;"/></g><!--MD5=[ea99303e1bc6469f2131750edcd614c7]
link Opeador_adjudicatario to RPCT--><g id="link_Opeador_adjudicatario_RPCT"><path d="M1753.5,519.1694 C1753.5,550.4494 1753.5,594.1494 1753.5,622.8994 " fill="none" id="Opeador_adjudicatario-RPCT" style="stroke:#181818;stroke-width:1.0;"/></g><!--MD5=[db4fd8a88535df6bc936383c8f679d39]
link VAOA to Opeador_adjudicatario--><g id="link_VAOA_Opeador_adjudicatario"><path d="M1413.75,480.1094 C1502.78,480.1094 1591.81,480.1094 1680.84,480.1094 " fill="none" id="VAOA-Opeador_adjudicatario" style="stroke:#181818;stroke-width:1.0;"/></g><!--MD5=[bc11bbb521b2ac23ca247b504f3c981e]
link Opeador_adjudicatario to PD--><g id="link_Opeador_adjudicatario_PD"><path d="M1808.1,519.1694 C1861.74,556.5694 1940.85,611.7194 1978.32,637.8494 " fill="none" id="Opeador_adjudicatario-PD" style="stroke:#181818;stroke-width:1.0;"/></g><!--MD5=[1de23c5c713c5f006be70062a1d48a3c]
link Opeador_adjudicatario to DE--><g id="link_Opeador_adjudicatario_DE"><path d="M1826.18,480.1094 C1880.17,480.1094 1934.17,480.1094 1988.17,480.1094 " fill="none" id="Opeador_adjudicatario-DE" style="stroke:#181818;stroke-width:1.0;"/></g><!--MD5=[ad50e9c3c8b8fd9c058de636c126ef1f]
link DE to CA--><g id="link_DE_CA"><path d="M2069.99,496.6294 C2092.76,527.3694 2143.62,596.0594 2169.59,631.1194 " fill="none" id="DE-to-CA" style="stroke:#181818;stroke-width:1.0;stroke-dasharray:7.0,7.0;"/><polygon fill="#181818" points="2172.63,635.2194,2170.4847,625.607,2169.6528,631.2023,2164.0575,630.3705,2172.63,635.2194" style="stroke:#181818;stroke-width:1.0;"/><text fill="#000000" font-family="sans-serif" font-size="13" lengthAdjust="spacing" textLength="55" x="2122.5" y="563.6045">«include»</text></g><!--MD5=[9b683cd82b520fb7965fc3065b750c51]
@startuml SMET
title SMET

actor Usuario_no_logueado  #LightBlue
actor Usuario_logueado #LightBlue
actor Sistema #LightBlue
actor Opeador_de_transporte #LightBlue
actor Opeador_adjudicatario #LightBlue

/'Casos de uso'/
"Generar alarmas" as (DA)
"Ver eventos" as (VE)
"Ver eventos (vista Usuario logueado)" as (VEVUL)
"Ver alarmas (vista Usuario logueado)" as (VAUL)
"Ver alarmas (vista Operador de transporte)" as (VAOP)
"Ver alarmas (vista Operador adjudicatario)" as (VAOA)
"Ver alarma " as (VA)
"ver advertencias" as (VADV)
"Crear conjunto de operadores" as (CCO)
"Registrar situaciones puntuales" as (RSP)
"Registrar periodos continuos de tiempo" as (RPCT)
"Proveer datos" as (PD)
"Definir evento" as (DE)
"Crear advertencia" as (CA)
"Examinar el estado de la explotación en tiempo real" as (EEE)
usecase AEETR as "Examinar el estado de la explotación en tiempo real (Vista Operador adjudicataro)
- -
extension points
Crear conjunto de operadores"

/'Herencias actores'/
Usuario_logueado -|> Usuario_no_logueado

/'Relaciones casos de uso'/
Sistema - - (DA)
Usuario_logueado - (VE)
Usuario_logueado - - (VAUL)
Opeador_de_transporte - -down- - (VAOP)
Opeador_de_transporte -left- (VADV)
Usuario_no_logueado -down- (VA)
(VAOA) -left-|> (VA)
(VAOP) -|> (VA)
(VAUL) -|> (VA)
Usuario_no_logueado -down- (EEE)
Usuario_no_logueado -up- (VEVUL)
(VEVUL) -right-|> (VE)
Opeador_adjudicatario - - (AEETR)
(CCO) .-right-> (AEETR) : <<extend>>
(AEETR) -down-|> (EEE)
Opeador_adjudicatario -up- (RSP)
Opeador_adjudicatario -down- (RPCT)
Opeador_adjudicatario -left- (VAOA)
Opeador_adjudicatario - - (PD)
Opeador_adjudicatario -right- (DE)
(DE) .-> (CA) : <<include>>
@end

@startuml SMET
title SMET

actor Usuario_no_logueado  #LightBlue
actor Usuario_logueado #LightBlue
actor Sistema #LightBlue
actor Opeador_de_transporte #LightBlue
actor Opeador_adjudicatario #LightBlue

"Generar alarmas" as (DA)
"Ver eventos" as (VE)
"Ver eventos (vista Usuario logueado)" as (VEVUL)
"Ver alarmas (vista Usuario logueado)" as (VAUL)
"Ver alarmas (vista Operador de transporte)" as (VAOP)
"Ver alarmas (vista Operador adjudicatario)" as (VAOA)
"Ver alarma " as (VA)
"ver advertencias" as (VADV)
"Crear conjunto de operadores" as (CCO)
"Registrar situaciones puntuales" as (RSP)
"Registrar periodos continuos de tiempo" as (RPCT)
"Proveer datos" as (PD)
"Definir evento" as (DE)
"Crear advertencia" as (CA)
"Examinar el estado de la explotación en tiempo real" as (EEE)
usecase AEETR as "Examinar el estado de la explotación en tiempo real (Vista Operador adjudicataro)
- -
extension points
Crear conjunto de operadores"

Usuario_logueado -|> Usuario_no_logueado

Sistema - - (DA)
Usuario_logueado - (VE)
Usuario_logueado - - (VAUL)
Opeador_de_transporte - -down- - (VAOP)
Opeador_de_transporte -left- (VADV)
Usuario_no_logueado -down- (VA)
(VAOA) -left-|> (VA)
(VAOP) -|> (VA)
(VAUL) -|> (VA)
Usuario_no_logueado -down- (EEE)
Usuario_no_logueado -up- (VEVUL)
(VEVUL) -right-|> (VE)
Opeador_adjudicatario - - (AEETR)
(CCO) .-right-> (AEETR) : <<extend>>
(AEETR) -down-|> (EEE)
Opeador_adjudicatario -up- (RSP)
Opeador_adjudicatario -down- (RPCT)
Opeador_adjudicatario -left- (VAOA)
Opeador_adjudicatario - - (PD)
Opeador_adjudicatario -right- (DE)
(DE) .-> (CA) : <<include>>
@end

PlantUML version 1.2022.7(Mon Aug 22 19:01:30 CEST 2022)
(GPL source distribution)
Java Runtime: Java(TM) SE Runtime Environment
JVM: Java HotSpot(TM) 64-Bit Server VM
Default Encoding: UTF-8
Language: es
Country: ES
--></g></svg>