<?xml version="1.0" encoding="UTF-8" standalone="no"?><svg xmlns="http://www.w3.org/2000/svg" xmlns:xlink="http://www.w3.org/1999/xlink" contentStyleType="text/css" height="820px" preserveAspectRatio="none" style="width:1212px;height:820px;background:#FFFFFF;" version="1.1" viewBox="0 0 1212 820" width="1212px" zoomAndPan="magnify"><defs/><g><rect fill="none" height="27.6094" id="_title" style="stroke:none;stroke-width:1.0;" width="174" x="512.4927" y="5"/><text fill="#000000" font-family="sans-serif" font-size="14" font-weight="bold" lengthAdjust="spacing" textLength="164" x="517.4927" y="24.5332">Sistema de información</text><!--MD5=[128f0757cf0ea77f14e95a88885fd9f7]
entity Usuario--><g id="elem_Usuario"><ellipse cx="132" cy="315.6094" fill="#ADD8E6" rx="8" ry="8" style="stroke:#181818;stroke-width:0.5;"/><path d="M132,323.6094 L132,350.6094 M119,331.6094 L145,331.6094 M132,350.6094 L119,365.6094 M132,350.6094 L145,365.6094 " fill="none" style="stroke:#181818;stroke-width:0.5;"/><text fill="#000000" font-family="sans-serif" font-size="14" lengthAdjust="spacing" textLength="48" x="108" y="381.6426">Usuario</text></g><!--MD5=[2e903384ba6a94be9c906ea46910cc3f]
entity Administrador--><g id="elem_Administrador"><ellipse cx="951" cy="52.6094" fill="#ADD8E6" rx="8" ry="8" style="stroke:#181818;stroke-width:0.5;"/><path d="M951,60.6094 L951,87.6094 M938,68.6094 L964,68.6094 M951,87.6094 L938,102.6094 M951,87.6094 L964,102.6094 " fill="none" style="stroke:#181818;stroke-width:0.5;"/><text fill="#000000" font-family="sans-serif" font-size="14" lengthAdjust="spacing" textLength="87" x="907.5" y="118.6426">Administrador</text></g><g id="elem_OAL"><ellipse cx="111.7514" cy="467.4596" fill="#F1F1F1" rx="94.7514" ry="21.3503" style="stroke:#181818;stroke-width:0.5;"/><text fill="#000000" font-family="sans-serif" font-size="14" lengthAdjust="spacing" textLength="149" x="37.2514" y="471.1882">Obtener ayuda en línea</text></g><g id="elem_RC"><ellipse cx="320.0069" cy="467.5108" fill="#F1F1F1" rx="77.5069" ry="17.9014" style="stroke:#181818;stroke-width:0.5;"/><text fill="#000000" font-family="sans-serif" font-size="14" lengthAdjust="spacing" textLength="108" x="263.8567" y="471.8254">Realizar consulta</text></g><g id="elem_IP"><ellipse cx="102.9659" cy="609.5025" fill="#F1F1F1" rx="89.9659" ry="20.3932" style="stroke:#181818;stroke-width:0.5;"/><text fill="#000000" font-family="sans-serif" font-size="14" lengthAdjust="spacing" textLength="138" x="33.9659" y="613.2311">Introducir potenciador</text></g><g id="elem_IFH"><ellipse cx="320.1965" cy="609.8487" fill="#F1F1F1" rx="91.6965" ry="20.7393" style="stroke:#181818;stroke-width:0.5;"/><text fill="#000000" font-family="sans-serif" font-size="14" lengthAdjust="spacing" textLength="142" x="249.1965" y="613.5772">Introducir fecha y hora</text></g><g id="elem_UM"><ellipse cx="574.1685" cy="467.6932" fill="#F1F1F1" rx="60.1685" ry="15.5838" style="stroke:#181818;stroke-width:0.5;"/><text fill="#000000" font-family="sans-serif" font-size="14" lengthAdjust="spacing" textLength="68" x="537.1685" y="472.2098">Usar mapa</text></g><g id="elem_VIAU"><ellipse cx="836.1681" cy="609.843" fill="#F1F1F1" rx="99.1681" ry="22.2336" style="stroke:#181818;stroke-width:0.5;"/><text fill="#000000" font-family="sans-serif" font-size="14" lengthAdjust="spacing" textLength="159" x="756.6681" y="613.5715">Ver información adicional</text></g><g id="elem_VHL"><ellipse cx="729.7614" cy="214.4617" fill="#F1F1F1" rx="112.2614" ry="24.8523" style="stroke:#181818;stroke-width:0.5;"/><text fill="#000000" font-family="sans-serif" font-size="14" lengthAdjust="spacing" textLength="188" x="635.7614" y="218.1902">Ver listado de horario y líneas</text></g><g id="elem_VHLU"><ellipse cx="132.1384" cy="214.7371" fill="#F1F1F1" rx="126.1384" ry="27.6277" style="stroke:#181818;stroke-width:0.5;"/><text fill="#000000" font-family="sans-serif" font-size="14" lengthAdjust="spacing" textLength="218" x="23.1384" y="218.4656">Ver horario y líneas (vista Usuario)</text></g><g id="elem_VHLA"><ellipse cx="438.0214" cy="214.4137" fill="#F1F1F1" rx="144.5214" ry="31.3043" style="stroke:#181818;stroke-width:0.5;"/><text fill="#000000" font-family="sans-serif" font-size="14" lengthAdjust="spacing" textLength="257" x="309.5214" y="218.1422">Ver horario y líneas (vista Administrador)</text></g><g id="elem_MD"><ellipse cx="951.0109" cy="214.6116" fill="#F1F1F1" rx="73.0109" ry="17.0022" style="stroke:#181818;stroke-width:0.5;"/><text fill="#000000" font-family="sans-serif" font-size="14" lengthAdjust="spacing" textLength="96" x="900.0109" y="219.1282">Modificar datos</text></g><g id="elem_IMD"><ellipse cx="1133.2427" cy="214.7579" fill="#F1F1F1" rx="73.7427" ry="17.1485" style="stroke:#181818;stroke-width:0.5;"/><text fill="#000000" font-family="sans-serif" font-size="14" lengthAdjust="spacing" textLength="98" x="1081.2427" y="219.2745">Introducir datos</text></g><g id="elem_SOD"><ellipse cx="573.9721" cy="609.7502" fill="#F1F1F1" rx="127.4721" ry="42.6409" style="stroke:#181818;stroke-width:0.5;"/><text fill="#000000" font-family="sans-serif" font-size="14" lengthAdjust="spacing" textLength="179" x="485.2457" y="596.5675">Seleccionar origen y destino</text><line style="stroke:#181818;stroke-width:1.0;" x1="451.1322" x2="696.8121" y1="599.6437" y2="599.6437"/><text fill="#000000" font-family="sans-serif" font-size="14" lengthAdjust="spacing" textLength="102" x="523.7457" y="618.1769">extension points</text><text fill="#000000" font-family="sans-serif" font-size="14" lengthAdjust="spacing" textLength="68" x="540.7457" y="635.7863">Usar mapa</text></g><g id="elem_VR"><ellipse cx="705.0474" cy="772.0776" fill="#F1F1F1" rx="112.5474" ry="41.9682" style="stroke:#181818;stroke-width:0.5;"/><text fill="#000000" font-family="sans-serif" font-size="14" lengthAdjust="spacing" textLength="85" x="652.7713" y="751.9419">Ver resultado</text><line style="stroke:#181818;stroke-width:1.0;" x1="603.2177" x2="806.8771" y1="755.0181" y2="755.0181"/><text fill="#000000" font-family="sans-serif" font-size="14" lengthAdjust="spacing" textLength="102" x="644.2713" y="773.5513">extension points</text><text fill="#000000" font-family="sans-serif" font-size="14" lengthAdjust="spacing" textLength="159" x="615.7713" y="791.1607">Ver información adicional</text></g><!--MD5=[66d92e18789a93f91a35aca9a2b10ac6]
link Usuario to OAL--><g id="link_Usuario_OAL"><path d="M125.62,385.2494 C122.26,405.3294 118.26,429.1794 115.48,445.8394 " fill="none" id="Usuario-OAL" style="stroke:#181818;stroke-width:1.0;"/></g><!--MD5=[b828409b37fddc186e2d7d9f21705e2a]
link Usuario to RC--><g id="link_Usuario_RC"><path d="M156.19,362.4894 C191.89,385.1794 258.37,427.4394 294.7,450.5294 " fill="none" id="Usuario-RC" style="stroke:#181818;stroke-width:1.0;"/></g><!--MD5=[05ffb2c3cf4034c7f92c5762a717aa77]
link RC to IP--><g id="link_RC_IP"><path d="M295.11,484.6694 C255.93,509.9494 179.85,559.0294 136.11,587.2494 " fill="none" id="RC-to-IP" style="stroke:#181818;stroke-width:1.0;stroke-dasharray:7.0,7.0;"/><polygon fill="#181818" points="131.72,590.0794,141.45,588.5539,135.9194,587.3655,137.1078,581.8349,131.72,590.0794" style="stroke:#181818;stroke-width:1.0;"/><text fill="#000000" font-family="sans-serif" font-size="13" lengthAdjust="spacing" textLength="55" x="239" y="533.6045">«include»</text></g><!--MD5=[a28424f449e33ae3d8a23f8970d0482e]
link RC to IFH--><g id="link_RC_IFH"><path d="M320,485.7794 C320,510.3794 320,555.8194 320,583.9994 " fill="none" id="RC-to-IFH" style="stroke:#181818;stroke-width:1.0;stroke-dasharray:7.0,7.0;"/><polygon fill="#181818" points="320,589.0494,324,580.0494,320,584.0494,316,580.0494,320,589.0494" style="stroke:#181818;stroke-width:1.0;"/><text fill="#000000" font-family="sans-serif" font-size="13" lengthAdjust="spacing" textLength="55" x="321" y="533.6045">«include»</text></g><!--MD5=[39bb7edb0257cdcffb2045037368a6e0]
link RC to SOD--><g id="link_RC_SOD"><path d="M348.64,484.3994 C386.24,505.1194 453.46,542.1694 504.73,570.4294 " fill="none" id="RC-to-SOD" style="stroke:#181818;stroke-width:1.0;stroke-dasharray:7.0,7.0;"/><polygon fill="#181818" points="509.33,572.9594,503.3855,565.1068,504.9532,570.5421,499.5179,572.1098,509.33,572.9594" style="stroke:#181818;stroke-width:1.0;"/><text fill="#000000" font-family="sans-serif" font-size="13" lengthAdjust="spacing" textLength="55" x="441" y="533.6045">«include»</text></g><!--MD5=[b251613f39b3e54fe9e098006e0eb9ac]
link UM to SOD--><g id="link_UM_SOD"><path d="M574,483.3294 C574,501.8294 574,534.4894 574,561.8194 " fill="none" id="UM-to-SOD" style="stroke:#181818;stroke-width:1.0;stroke-dasharray:7.0,7.0;"/><polygon fill="#181818" points="574,566.8594,578,557.8594,574,561.8594,570,557.8594,574,566.8594" style="stroke:#181818;stroke-width:1.0;"/><text fill="#000000" font-family="sans-serif" font-size="13" lengthAdjust="spacing" textLength="53" x="575" y="533.6045">«extend»</text></g><!--MD5=[c24d65879e1f8527cf405e851c8fc6b1]
link SOD to VR--><g id="link_SOD_VR"><path d="M606.72,650.6994 C625.85,674.1294 650,703.7194 669.57,727.7094 " fill="none" id="SOD-to-VR" style="stroke:#181818;stroke-width:1.0;stroke-dasharray:7.0,7.0;"/><polygon fill="#181818" points="672.92,731.8094,670.332,722.3066,669.76,727.9345,664.1322,727.3626,672.92,731.8094" style="stroke:#181818;stroke-width:1.0;"/><text fill="#000000" font-family="sans-serif" font-size="13" lengthAdjust="spacing" textLength="55" x="645" y="696.6045">«include»</text></g><!--MD5=[d6acf940feefa0ea56499684d3b13b69]
link VIAU to VR--><g id="link_VIAU_VR"><path d="M818.87,631.5894 C799.09,655.8294 766.02,696.3494 740.6,727.4994 " fill="none" id="VIAU-to-VR" style="stroke:#181818;stroke-width:1.0;stroke-dasharray:7.0,7.0;"/><polygon fill="#181818" points="737.22,731.6394,746.0078,727.1926,740.38,727.7645,739.808,722.1366,737.22,731.6394" style="stroke:#181818;stroke-width:1.0;"/><text fill="#000000" font-family="sans-serif" font-size="13" lengthAdjust="spacing" textLength="53" x="776" y="696.6045">«extend»</text></g><!--MD5=[97a1096059be4b3858d41c120c00504c]
link VHLU to Usuario--><g id="link_VHLU_Usuario"><path d="M132,242.1294 C132,260.7794 132,286.0094 132,306.8394 " fill="none" id="VHLU-Usuario" style="stroke:#181818;stroke-width:1.0;"/></g><!--MD5=[99f15220cad09bea98dab576ab7c9e08]
link VHLU to VHL--><g id="link_VHLU_VHL"><path d="M183.32,189.3494 C214.38,175.4794 255.26,159.6994 293.5,152.6094 C419.79,129.1994 456.59,127.2194 582.5,152.6094 C612.16,158.5894 643.27,170.6994 669.24,182.6494 " fill="none" id="VHLU-to-VHL" style="stroke:#181818;stroke-width:1.0;"/><polygon fill="none" points="672.56,176.4694,687.57,191.4294,666.51,189.0994,672.56,176.4694" style="stroke:#181818;stroke-width:1.0;"/></g><!--MD5=[6c33033668d45b58a8aa2f174e0e5c9f]
link Administrador to VHLA--><g id="link_Administrador_VHLA"><path d="M907.26,95.1494 C824.15,116.1294 641.79,162.1594 530.46,190.2694 " fill="none" id="Administrador-VHLA" style="stroke:#181818;stroke-width:1.0;"/></g><!--MD5=[20eea4519c730f323163672a0fe7115d]
link VHLA to VHL--><g id="link_VHLA_VHL"><path d="M582.57,214.6094 C587.47,214.6094 592.37,214.6094 597.27,214.6094 " fill="none" id="VHLA-to-VHL" style="stroke:#181818;stroke-width:1.0;"/><polygon fill="none" points="597.42,207.6094,617.42,214.6094,597.42,221.6094,597.42,207.6094" style="stroke:#181818;stroke-width:1.0;"/></g><!--MD5=[5d68fe04196ad7bb1f2741c67e4cce7d]
link Administrador to MD--><g id="link_Administrador_MD"><path d="M951,122.2594 C951,147.3294 951,178.8394 951,197.5394 " fill="none" id="Administrador-MD" style="stroke:#181818;stroke-width:1.0;"/></g><!--MD5=[8ea46355e019de6100183937979030fa]
link Administrador to IMD--><g id="link_Administrador_IMD"><path d="M994.59,115.1294 C1031.4,141.3194 1082.56,177.7194 1111.25,198.1394 " fill="none" id="Administrador-IMD" style="stroke:#181818;stroke-width:1.0;"/></g><!--MD5=[d17bc1cc81f6884e456b3422ddd98054]
@startuml SIIT
title Sistema de información

actor Usuario #LightBlue
actor Administrador #LightBlue

/'Casos de uso'/
"Obtener ayuda en línea" as (OAL)
"Realizar consulta" as (RC)
"Introducir potenciador" as (IP)
"Introducir fecha y hora" as (IFH)
"Usar mapa" as (UM)
"Ver información adicional" as (VIAU)
"Ver listado de horario y líneas" as (VHL)
"Ver horario y líneas (vista Usuario)" as (VHLU)
"Ver horario y líneas (vista Administrador)" as (VHLA)
"Modificar datos" as (MD)
"Introducir datos" as (IMD)
usecase SOD as "Seleccionar origen y destino
- -
extension points
Usar mapa"

usecase VR as "Ver resultado
- -
extension points
Ver información adicional"

/'Relaciones casos de uso'/
Usuario - - (OAL)
Usuario - - (RC)
(RC) .-> (IP) : <<include>>
(RC) .-> (IFH) : <<include>>
(RC) .-> (SOD) : <<include>>
(UM) .-> (SOD) : <<extend>>
(SOD) .-> (VR) : <<include>>
(VIAU) .-> (VR) : <<extend>>
Usuario -up- (VHLU)
(VHLU) -|> (VHL)
Administrador - - (VHLA)
(VHLA) -|> (VHL)
Administrador - - (MD)
Administrador - - (IMD)





@end

@startuml SIIT
title Sistema de información

actor Usuario #LightBlue
actor Administrador #LightBlue

"Obtener ayuda en línea" as (OAL)
"Realizar consulta" as (RC)
"Introducir potenciador" as (IP)
"Introducir fecha y hora" as (IFH)
"Usar mapa" as (UM)
"Ver información adicional" as (VIAU)
"Ver listado de horario y líneas" as (VHL)
"Ver horario y líneas (vista Usuario)" as (VHLU)
"Ver horario y líneas (vista Administrador)" as (VHLA)
"Modificar datos" as (MD)
"Introducir datos" as (IMD)
usecase SOD as "Seleccionar origen y destino
- -
extension points
Usar mapa"

usecase VR as "Ver resultado
- -
extension points
Ver información adicional"

Usuario - - (OAL)
Usuario - - (RC)
(RC) .-> (IP) : <<include>>
(RC) .-> (IFH) : <<include>>
(RC) .-> (SOD) : <<include>>
(UM) .-> (SOD) : <<extend>>
(SOD) .-> (VR) : <<include>>
(VIAU) .-> (VR) : <<extend>>
Usuario -up- (VHLU)
(VHLU) -|> (VHL)
Administrador - - (VHLA)
(VHLA) -|> (VHL)
Administrador - - (MD)
Administrador - - (IMD)





@end

PlantUML version 1.2022.7(Mon Aug 22 19:01:30 CEST 2022)
(GPL source distribution)
Java Runtime: Java(TM) SE Runtime Environment
JVM: Java HotSpot(TM) 64-Bit Server VM
Default Encoding: UTF-8
Language: es
Country: ES
--></g></svg>